<svg xmlns="http://www.w3.org/2000/svg" version="1.1" xmlns:xlink="http://www.w3.org/1999/xlink" xmlns:svgjs="http://svgjs.dev/svgjs" width="1000" height="1012" viewBox="0 0 1000 1012"><g transform="matrix(1,0,0,1,0.8839385392951158,0.40971659919023296)"><svg viewBox="0 0 244 247" data-background-color="#ffffff" preserveAspectRatio="xMidYMid meet" height="1012" width="1000" xmlns="http://www.w3.org/2000/svg" xmlns:xlink="http://www.w3.org/1999/xlink"><g id="tight-bounds" transform="matrix(1,0,0,1,-0.2156810035880028,-0.09999999999999432)"><svg viewBox="0 0 244.43135999999998 247.2" height="247.2" width="244.43135999999998"><g><svg></svg></g><g><svg viewBox="0 0 244.43135999999998 247.2" height="247.2" width="244.43135999999998"><g transform="matrix(1,0,0,1,0,51.9919396056338)"><svg viewBox="0 0 244.43135999999998 143.21612078873238" height="143.21612078873238" width="244.43135999999998"><g><svg viewBox="0 0 244.43135999999998 143.21612078873238" height="143.21612078873238" width="244.43135999999998"><g><svg viewBox="0 0 244.43135999999998 143.21612078873238" height="143.21612078873238" width="244.43135999999998"><g><svg viewBox="0 0 244.43135999999998 143.21612078873238" height="143.21612078873238" width="244.43135999999998"><g><svg viewBox="0 0 244.43135999999998 143.21612078873238" height="143.21612078873238" width="244.43135999999998"><g><svg viewBox="0 0 244.43135999999998 143.21612078873238" height="143.21612078873238" width="244.43135999999998"><g transform="matrix(1,0,0,1,0,0)"><svg width="244.43135999999998" viewBox="1.7799999713897705 -35.54999923706055 59.22999954223633 35.54999923706055" height="143.21612078873238" data-palette-color="#0074d9"><g class="undefined-text-0" data-fill-palette-color="primary" id="text-0"><path d="M28.47-31.35L10.94-5.88 28.86-5.88 28.86 0 1.78 0 1.78-4.3 19.36-29.61 1.81-29.61 1.81-35.55 28.47-35.55 28.47-31.35Z" fill="#0074d9" data-fill-palette-color="primary"></path><path d="M52.3 0L43.17-14.26 39.36-10.16 39.36 0 32.03 0 32.03-35.55 39.36-35.55 39.36-19.43 42.58-23.85 51.64-35.55 60.65-35.55 48.03-19.75 61.01 0 52.3 0Z" fill="#77d4fc" data-fill-palette-color="secondary"></path></g></svg></g></svg></g></svg></g></svg></g><g></g></svg></g></svg></g></svg></g><path d="M0 45.992L0 1 244.431 1 244.431 45.992 231.516 45.992 231.516 13.915 12.915 13.915 12.915 45.992 0 45.992M0 201.208L0 246.2 244.431 246.2 244.431 201.208 231.516 201.208 231.516 233.285 12.915 233.285 12.915 201.208 0 201.208" fill="#0074d9" stroke="transparent" data-fill-palette-color="primary"></path></svg></g><defs></defs></svg><rect width="244.43135999999998" height="247.2" fill="none" stroke="none" visibility="hidden"></rect></g></svg></g></svg>