<?xml version="1.0" encoding="UTF-8"?>
<svg version="1.1" viewBox="0 0 1000 1012" xmlns="http://www.w3.org/2000/svg">
<g transform="translate(.88394 .40972)">
<svg width="1e3" height="1012" data-background-color="#ffffff" viewBox="0 0 244 247" xmlns="http://www.w3.org/2000/svg" xmlns:xlink="http://www.w3.org/1999/xlink">
<g transform="translate(-.21568 -.1)">
<svg width="244.43" height="247.2" viewBox="0 0 244.43135999999998 247.2">
<svg/>
<svg width="244.43" height="247.2" viewBox="0 0 244.43135999999998 247.2">
<g transform="translate(0 51.992)">
<svg width="244.43" height="143.22" viewBox="0 0 244.43135999999998 143.21612078873238">
<svg width="244.43" height="143.22" viewBox="0 0 244.43135999999998 143.21612078873238">
<svg width="244.43" height="143.22" viewBox="0 0 244.43135999999998 143.21612078873238">
<svg width="244.43" height="143.22" viewBox="0 0 244.43135999999998 143.21612078873238">
<svg width="244.43" height="143.22" viewBox="0 0 244.43135999999998 143.21612078873238">
<svg width="244.43" height="143.22" viewBox="0 0 244.43135999999998 143.21612078873238">
<g>
<svg width="244.43" height="143.22" data-palette-color="#0074d9" viewBox="1.7799999713897705 -35.54999923706055 59.22999954223633 35.54999923706055">
<g class="undefined-text-0" data-fill-palette-color="primary">
<path d="m28.47-31.35-17.53 25.47h17.92v5.88h-27.08v-4.3l17.58-25.31h-17.55v-5.94h26.66v4.2z" fill="#0074d9" data-fill-palette-color="primary"/>
<path d="m52.3 0-9.13-14.26-3.81 4.1v10.16h-7.33v-35.55h7.33v16.12l3.22-4.42 9.06-11.7h9.01l-12.62 15.8 12.98 19.75h-8.71z" fill="#77d4fc" data-fill-palette-color="secondary"/>
</g>
</svg>
</g>
</svg>
</svg>
</svg>
</svg>
</svg>
</svg>
</g>
<path d="m0 45.992v-44.992h244.43v44.992h-12.915v-32.077h-218.6v32.077h-12.915m0 155.22v44.992h244.43v-44.992h-12.915v32.077h-218.6v-32.077h-12.915" fill="#0074d9" stroke="transparent" data-fill-palette-color="primary"/>
</svg>
</svg>
<rect width="244.43" height="247.2" fill="none" visibility="hidden"/>
</g>
</svg>
</g>
</svg>
